<svg id="Layer_1" data-name="Layer 1" xmlns="http://www.w3.org/2000/svg" viewBox="0 0 326.8 83.74"><defs><style>.cls-1{fill:#231815}.cls-2{fill:#595757}</style></defs><path class="cls-1" d="M73.66 68.82a9.73 9.73 0 0 1-.93 4.37 9.17 9.17 0 0 1-2.53 3.14 10.89 10.89 0 0 1-3.72 1.89 16 16 0 0 1-4.55.64 16.17 16.17 0 0 1-3-.27 17.87 17.87 0 0 1-2.49-.65 11.17 11.17 0 0 1-1.8-.79 5.39 5.39 0 0 1-1-.73 1.89 1.89 0 0 1-.45-.92 8.37 8.37 0 0 1-.19-1.72v-1.27a4.36 4.36 0 0 1 .16-.83.91.91 0 0 1 .3-.45.69.69 0 0 1 .43-.14 2 2 0 0 1 1 .41c.42.26 1 .56 1.61.89a15 15 0 0 0 2.34.89 11 11 0 0 0 3.14.4 7.24 7.24 0 0 0 2.11-.28 4.88 4.88 0 0 0 1.58-.79 3.5 3.5 0 0 0 1-1.27 4.05 4.05 0 0 0 .33-1.69 3 3 0 0 0-.59-1.84 5.85 5.85 0 0 0-1.53-1.37 15.79 15.79 0 0 0-2.14-1.12l-2.47-1.11a23.64 23.64 0 0 1-2.48-1.33 10.18 10.18 0 0 1-2.14-1.78 8.39 8.39 0 0 1-1.53-2.46 8.83 8.83 0 0 1-.59-3.39 9 9 0 0 1 .85-4 8.13 8.13 0 0 1 2.28-2.86A9.73 9.73 0 0 1 60 46.7a15 15 0 0 1 4.13-.56 15.38 15.38 0 0 1 4.36.64 10.91 10.91 0 0 1 1.74.66 3.75 3.75 0 0 1 1 .61 2 2 0 0 1 .33.41 2 2 0 0 1 .15.45 4.24 4.24 0 0 1 .08.71v2.26a3.77 3.77 0 0 1-.12.8 1 1 0 0 1-.25.47.57.57 0 0 1-.42.15 2.06 2.06 0 0 1-.86-.35c-.39-.22-.87-.47-1.44-.74a14.18 14.18 0 0 0-2-.73 8.73 8.73 0 0 0-2.47-.33 6 6 0 0 0-1.84.25 3.82 3.82 0 0 0-1.31.71 2.74 2.74 0 0 0-.78 1.09 3.55 3.55 0 0 0-.3 1.34 2.91 2.91 0 0 0 .58 1.82 5.45 5.45 0 0 0 1.54 1.37 15.94 15.94 0 0 0 2.19 1.12c.82.35 1.65.72 2.5 1.11a24.06 24.06 0 0 1 2.5 1.33 10.11 10.11 0 0 1 2.17 1.78 8.26 8.26 0 0 1 1.55 2.44 8.58 8.58 0 0 1 .63 3.31zM83.13 77.46a.64.64 0 0 1-.15.43 1.13 1.13 0 0 1-.5.31 4.46 4.46 0 0 1-1 .18c-.39 0-.88.06-1.49.06s-1.1 0-1.49-.06a4.35 4.35 0 0 1-.94-.18 1.11 1.11 0 0 1-.51-.31.64.64 0 0 1-.14-.43v-32.1a.7.7 0 0 1 .14-.44 1.13 1.13 0 0 1 .51-.33 4.14 4.14 0 0 1 .94-.21 14.74 14.74 0 0 1 1.5-.07 14.58 14.58 0 0 1 1.49.07 4.25 4.25 0 0 1 1 .21 1.15 1.15 0 0 1 .5.33.71.71 0 0 1 .15.44zM94.65 48.31a3.48 3.48 0 0 1-.75 2.57 6 6 0 0 1-5.63 0 3.32 3.32 0 0 1-.72-2.46 3.52 3.52 0 0 1 .75-2.58 4.14 4.14 0 0 1 2.83-.72 4.1 4.1 0 0 1 2.79.7 3.33 3.33 0 0 1 .73 2.49zm-.46 29.15a.64.64 0 0 1-.15.43 1.07 1.07 0 0 1-.5.31 4.48 4.48 0 0 1-.94.18q-.59.06-1.5.06c-.6 0-1.1 0-1.49-.06a4.35 4.35 0 0 1-.94-.18 1 1 0 0 1-.5-.31.64.64 0 0 1-.15-.43V55.74a.64.64 0 0 1 .15-.43 1.11 1.11 0 0 1 .5-.32 4.14 4.14 0 0 1 .94-.21 16 16 0 0 1 3 0 4.27 4.27 0 0 1 .94.21 1.17 1.17 0 0 1 .5.32.64.64 0 0 1 .15.43zM119.8 77.46a.83.83 0 0 1-.13.46.9.9 0 0 1-.41.3 2.83 2.83 0 0 1-.8.17h-2.51a2.84 2.84 0 0 1-.79-.17 1 1 0 0 1-.45-.3.76.76 0 0 1-.13-.46v-2.41a14.33 14.33 0 0 1-3.58 2.81 9.27 9.27 0 0 1-8.32 0 8.08 8.08 0 0 1-2.82-2.6 11.23 11.23 0 0 1-1.58-3.82 20.79 20.79 0 0 1-.49-4.6 20 20 0 0 1 .63-5.23 11.7 11.7 0 0 1 1.82-4 8.16 8.16 0 0 1 3-2.52 9.27 9.27 0 0 1 4.11-.87 7.28 7.28 0 0 1 3.33.74 11.88 11.88 0 0 1 3 2.19V45.43a.79.79 0 0 1 .14-.44 1 1 0 0 1 .49-.33 4.86 4.86 0 0 1 .94-.2 14 14 0 0 1 3 0 4.74 4.74 0 0 1 .93.2 1.11 1.11 0 0 1 .49.33.73.73 0 0 1 .15.44zm-6.13-14.55a13.37 13.37 0 0 0-2.53-2.53 4.23 4.23 0 0 0-2.53-.88 3.62 3.62 0 0 0-2.07.59 4.44 4.44 0 0 0-1.4 1.6 8.59 8.59 0 0 0-.78 2.24 12.38 12.38 0 0 0-.26 2.52 15.6 15.6 0 0 0 .22 2.67 8.5 8.5 0 0 0 .72 2.3 4.41 4.41 0 0 0 1.34 1.63 3.48 3.48 0 0 0 2.1.61 4 4 0 0 0 1.24-.19 4.7 4.7 0 0 0 1.22-.59 8.13 8.13 0 0 0 1.29-1.09q.66-.67 1.44-1.65zM144.91 65.94a2.34 2.34 0 0 1-.5 1.66 1.78 1.78 0 0 1-1.38.54h-13.3a9.07 9.07 0 0 0 .33 2.53 4.68 4.68 0 0 0 1.06 1.92A4.49 4.49 0 0 0 133 73.8a7.91 7.91 0 0 0 2.73.42 15.92 15.92 0 0 0 2.84-.23 19.17 19.17 0 0 0 2.11-.52c.6-.18 1.09-.35 1.49-.51a2.85 2.85 0 0 1 .95-.23.81.81 0 0 1 .37.08.6.6 0 0 1 .24.31 2 2 0 0 1 .14.62V75.65c0 .25 0 .47-.07.65a2 2 0 0 1-.15.45 1.67 1.67 0 0 1-.26.35 2.75 2.75 0 0 1-.87.47 14.66 14.66 0 0 1-1.81.57 24.05 24.05 0 0 1-2.52.49 20.84 20.84 0 0 1-3 .21 16 16 0 0 1-5.1-.74 8.93 8.93 0 0 1-3.66-2.22 9.15 9.15 0 0 1-2.19-3.76 17.28 17.28 0 0 1-.73-5.32 17.08 17.08 0 0 1 .76-5.24 10.93 10.93 0 0 1 2.21-3.95 9.47 9.47 0 0 1 3.51-2.48 13.66 13.66 0 0 1 9.35 0 8.4 8.4 0 0 1 3.2 2.24 9.16 9.16 0 0 1 1.84 3.38 14.73 14.73 0 0 1 .58 4.24zm-6-1.76a6.3 6.3 0 0 0-1-4.06 4 4 0 0 0-3.44-1.48 4.52 4.52 0 0 0-2.05.44 4.08 4.08 0 0 0-1.42 1.19 5.15 5.15 0 0 0-.88 1.75 8.42 8.42 0 0 0-.36 2.16zM192.2 77.81a.54.54 0 0 1-.07.27.49.49 0 0 1-.26.19 2 2 0 0 1-.46.12 4.67 4.67 0 0 1-.72 0 4.54 4.54 0 0 1-.69 0 1.77 1.77 0 0 1-.46-.12.5.5 0 0 1-.25-.19.54.54 0 0 1-.07-.27V49.32h-.05L176.71 78a1.19 1.19 0 0 1-.15.18.87.87 0 0 1-.27.15 2.15 2.15 0 0 1-.4.09 3.06 3.06 0 0 1-.56 0 3.3 3.3 0 0 1-.58 0 1.8 1.8 0 0 1-.41-.09.76.76 0 0 1-.25-.15.41.41 0 0 1-.09-.18l-11.89-28.68v28.49a.56.56 0 0 1-.08.27.5.5 0 0 1-.25.19 2.28 2.28 0 0 1-.47.12 4.81 4.81 0 0 1-.75 0 4.35 4.35 0 0 1-.69 0 2 2 0 0 1-.46-.12.45.45 0 0 1-.23-.19.66.66 0 0 1-.06-.27V48.24a1.4 1.4 0 0 1 .47-1.21 1.56 1.56 0 0 1 .9-.33h1.62a3.85 3.85 0 0 1 1.07.14 2.6 2.6 0 0 1 .82.39 2.36 2.36 0 0 1 .6.62 4.34 4.34 0 0 1 .45.83l10.45 25.1h.12l10.9-25a5.06 5.06 0 0 1 .53-1 3.11 3.11 0 0 1 .58-.65 2.08 2.08 0 0 1 .66-.34 3.2 3.2 0 0 1 .78-.1h1.78a1.65 1.65 0 0 1 .47.08 1.14 1.14 0 0 1 .44.25 1.46 1.46 0 0 1 .33.48 1.73 1.73 0 0 1 .13.73z" transform="translate(-3.69 -2.75)"/><path class="cls-2" d="M216.48 65.62a1.38 1.38 0 0 1-.46 1.21 1.57 1.57 0 0 1-.91.33H200a15.6 15.6 0 0 0 .41 3.71 7.36 7.36 0 0 0 1.33 2.85 6 6 0 0 0 2.43 1.82 9.44 9.44 0 0 0 3.67.63 12.94 12.94 0 0 0 2.77-.27 16.86 16.86 0 0 0 2.12-.6c.59-.22 1.08-.41 1.46-.59a2.39 2.39 0 0 1 .82-.27.5.5 0 0 1 .27.07.5.5 0 0 1 .2.23 1.35 1.35 0 0 1 .11.41 4.77 4.77 0 0 1 0 .61 1.84 1.84 0 0 1 0 .33 1.36 1.36 0 0 1-.06.29.8.8 0 0 1-.11.25 1.1 1.1 0 0 1-.19.25 4.69 4.69 0 0 1-.76.43 13.07 13.07 0 0 1-1.67.61c-.68.2-1.48.38-2.39.55a16.75 16.75 0 0 1-2.92.24 12.63 12.63 0 0 1-4.56-.77 8.56 8.56 0 0 1-3.33-2.27 9.83 9.83 0 0 1-2-3.72 17.06 17.06 0 0 1-.7-5.15 16.24 16.24 0 0 1 .72-5 10.78 10.78 0 0 1 2.04-3.8 8.87 8.87 0 0 1 3.25-2.36 10.45 10.45 0 0 1 4.22-.82 10 10 0 0 1 4.26.83 8.11 8.11 0 0 1 2.9 2.23 9.09 9.09 0 0 1 1.71 3.25 14.31 14.31 0 0 1 .52 3.91zm-3-.85a7.94 7.94 0 0 0-1.61-5.49 6.13 6.13 0 0 0-4.93-2 6.57 6.57 0 0 0-2.92.62 6.7 6.7 0 0 0-2.13 1.65 7.31 7.31 0 0 0-1.35 2.45 10.21 10.21 0 0 0-.54 2.82zM252.27 77.81a.47.47 0 0 1-.3.46 1.83 1.83 0 0 1-.44.12 4.58 4.58 0 0 1-.7 0 4.48 4.48 0 0 1-.72 0 2 2 0 0 1-.46-.12.45.45 0 0 1-.23-.19.66.66 0 0 1-.06-.27v-13.6a13.91 13.91 0 0 0-.28-2.85 6.79 6.79 0 0 0-.88-2.19 4.21 4.21 0 0 0-1.52-1.42 4.52 4.52 0 0 0-2.17-.5 5.15 5.15 0 0 0-3.12 1.2 21.33 21.33 0 0 0-3.47 3.55v15.81a.47.47 0 0 1-.3.46 1.83 1.83 0 0 1-.44.12 4.93 4.93 0 0 1-1.4 0 1.79 1.79 0 0 1-.45-.12.41.41 0 0 1-.23-.19.54.54 0 0 1-.07-.27v-13.6a12.61 12.61 0 0 0-.29-2.85 6.58 6.58 0 0 0-.89-2.19 4.21 4.21 0 0 0-1.52-1.42 4.52 4.52 0 0 0-2.17-.5 5.15 5.15 0 0 0-3.12 1.2A20.54 20.54 0 0 0 223.6 62v15.81a.54.54 0 0 1-.07.27.52.52 0 0 1-.24.19 1.59 1.59 0 0 1-.44.12 4.57 4.57 0 0 1-.72 0 4.49 4.49 0 0 1-.7 0 1.92 1.92 0 0 1-.45-.12.45.45 0 0 1-.23-.19.66.66 0 0 1-.06-.27v-22.1a.63.63 0 0 1 .06-.27.46.46 0 0 1 .23-.2 1.46 1.46 0 0 1 .43-.13 5.94 5.94 0 0 1 .67 0 6.47 6.47 0 0 1 .69 0 1.1 1.1 0 0 1 .41.13.45.45 0 0 1 .21.2.63.63 0 0 1 .06.27v3.13a14.76 14.76 0 0 1 3.63-3.08 7 7 0 0 1 3.4-.95 8.51 8.51 0 0 1 2.48.33 6.52 6.52 0 0 1 1.93.93 6 6 0 0 1 1.42 1.42 7.81 7.81 0 0 1 .95 1.84 23.92 23.92 0 0 1 2.17-2.14 12.92 12.92 0 0 1 1.93-1.39 8.06 8.06 0 0 1 1.78-.76 6.61 6.61 0 0 1 1.69-.23 7.6 7.6 0 0 1 3.51.73 6.17 6.17 0 0 1 2.3 2 8.18 8.18 0 0 1 1.25 2.9 15.38 15.38 0 0 1 .38 3.52zM277.19 66.48a19.84 19.84 0 0 1-.61 5.09 11 11 0 0 1-1.83 3.84 8.15 8.15 0 0 1-3 2.45 9.4 9.4 0 0 1-4.07.85 8.07 8.07 0 0 1-1.9-.21 6.61 6.61 0 0 1-1.7-.67 11.79 11.79 0 0 1-1.7-1.17 24.56 24.56 0 0 1-1.87-1.66v2.86a.49.49 0 0 1-.31.49 2.16 2.16 0 0 1-.42.1 3.52 3.52 0 0 1-.61 0 3.77 3.77 0 0 1-.63 0 1.63 1.63 0 0 1-.41-.1.44.44 0 0 1-.22-.2.65.65 0 0 1-.07-.29V44.9a.6.6 0 0 1 .07-.27.48.48 0 0 1 .23-.21 1.22 1.22 0 0 1 .45-.12 4.64 4.64 0 0 1 .7 0 4.84 4.84 0 0 1 .72 0 1.11 1.11 0 0 1 .44.12.63.63 0 0 1 .24.21.6.6 0 0 1 .07.27v13.79a18.1 18.1 0 0 1 2-1.84 10.4 10.4 0 0 1 1.86-1.2 7.66 7.66 0 0 1 1.8-.65 8.6 8.6 0 0 1 1.85-.19 8.45 8.45 0 0 1 4.1.93 7.74 7.74 0 0 1 2.76 2.51A11.19 11.19 0 0 1 276.7 62a19.88 19.88 0 0 1 .49 4.48zm-3.06.46a21.12 21.12 0 0 0-.3-3.59 10.07 10.07 0 0 0-1-3.07 5.83 5.83 0 0 0-1.89-2.16 5 5 0 0 0-2.94-.82 6.25 6.25 0 0 0-1.71.24 6.82 6.82 0 0 0-1.72.81 12.3 12.3 0 0 0-1.83 1.45 23 23 0 0 0-2 2.21v9.62A18.2 18.2 0 0 0 264.3 75a6.08 6.08 0 0 0 3.54 1.18 5 5 0 0 0 2.88-.82 6.37 6.37 0 0 0 2-2.13 10 10 0 0 0 1.11-3 17.15 17.15 0 0 0 .3-3.29zM299.46 65.62a1.38 1.38 0 0 1-.46 1.21 1.59 1.59 0 0 1-.91.33H283a15.6 15.6 0 0 0 .41 3.71 7.36 7.36 0 0 0 1.33 2.85 6.08 6.08 0 0 0 2.42 1.82 9.49 9.49 0 0 0 3.68.63 12.94 12.94 0 0 0 2.77-.27 16.2 16.2 0 0 0 2.11-.6c.6-.22 1.09-.41 1.47-.59a2.32 2.32 0 0 1 .82-.27.5.5 0 0 1 .27.07.57.57 0 0 1 .2.23 1.71 1.71 0 0 1 .11.41 5 5 0 0 1 0 .61 1.83 1.83 0 0 1 0 .33l-.06.29a1.12 1.12 0 0 1-.11.25 1.16 1.16 0 0 1-.2.25 3.88 3.88 0 0 1-.76.43 12.86 12.86 0 0 1-1.66.61c-.69.2-1.48.38-2.39.55a16.79 16.79 0 0 1-2.93.24 12.58 12.58 0 0 1-4.55-.77 8.56 8.56 0 0 1-3.33-2.27 9.83 9.83 0 0 1-2-3.72 17.06 17.06 0 0 1-.7-5.15 16.24 16.24 0 0 1 .72-5 10.78 10.78 0 0 1 2.02-3.8 8.92 8.92 0 0 1 3.24-2.36 10.53 10.53 0 0 1 4.23-.82 10 10 0 0 1 4.26.83 8.19 8.19 0 0 1 2.9 2.23 9.07 9.07 0 0 1 1.66 3.26 13.94 13.94 0 0 1 .53 3.91zm-3-.85a7.89 7.89 0 0 0-1.62-5.49 6.09 6.09 0 0 0-4.92-2 6.57 6.57 0 0 0-2.92.62 6.49 6.49 0 0 0-2.13 1.65 7.31 7.31 0 0 0-1.35 2.45 10.21 10.21 0 0 0-.54 2.82zM316 56.84a5.73 5.73 0 0 1 0 .62 1.68 1.68 0 0 1-.09.41.82.82 0 0 1-.14.25.36.36 0 0 1-.24.08 1.38 1.38 0 0 1-.51-.11l-.69-.23c-.26-.08-.54-.16-.85-.23a4.17 4.17 0 0 0-1-.11 3.17 3.17 0 0 0-1.3.28 5.38 5.38 0 0 0-1.33.9 11.34 11.34 0 0 0-1.47 1.65c-.52.68-1.08 1.52-1.7 2.52v14.94a.56.56 0 0 1-.08.27.49.49 0 0 1-.23.19 1.7 1.7 0 0 1-.44.12 4.67 4.67 0 0 1-.72 0 4.49 4.49 0 0 1-.7 0 1.79 1.79 0 0 1-.45-.12.44.44 0 0 1-.24-.19.66.66 0 0 1-.06-.27v-22.1a.63.63 0 0 1 .06-.27.45.45 0 0 1 .24-.2 1.39 1.39 0 0 1 .42-.13 7.72 7.72 0 0 1 1.36 0 1.23 1.23 0 0 1 .42.13.45.45 0 0 1 .21.2.63.63 0 0 1 .06.27v3.49a19.53 19.53 0 0 1 1.66-2.2 8.73 8.73 0 0 1 1.54-1.33 4.57 4.57 0 0 1 1.44-.65 6.15 6.15 0 0 1 1.43-.17 6.66 6.66 0 0 1 .73 0 8.13 8.13 0 0 1 .9.13 7.58 7.58 0 0 1 .86.23 1.93 1.93 0 0 1 .52.25.74.74 0 0 1 .2.19.93.93 0 0 1 .08.22 1.57 1.57 0 0 1 .05.37c.06.15.06.35.06.6zM330.49 71.92a6.69 6.69 0 0 1-.59 2.85 5.81 5.81 0 0 1-1.68 2.13 7.55 7.55 0 0 1-2.6 1.35 11.82 11.82 0 0 1-3.36.46 12.74 12.74 0 0 1-2.18-.18 14 14 0 0 1-1.86-.47 7.86 7.86 0 0 1-1.41-.6 4.3 4.3 0 0 1-.84-.56 1.34 1.34 0 0 1-.39-.61 3.19 3.19 0 0 1-.12-1 3.13 3.13 0 0 1 0-.56 2.35 2.35 0 0 1 .13-.42.65.65 0 0 1 .19-.26.5.5 0 0 1 .27-.08 1.66 1.66 0 0 1 .79.34 12.25 12.25 0 0 0 1.28.74 11.67 11.67 0 0 0 1.84.75 8 8 0 0 0 2.46.34 8.18 8.18 0 0 0 2.05-.24 5 5 0 0 0 1.62-.74 3.33 3.33 0 0 0 1.07-1.25 4.08 4.08 0 0 0 .38-1.8 3 3 0 0 0-.49-1.73 4.75 4.75 0 0 0-1.29-1.23 9.89 9.89 0 0 0-1.81-.93l-2.08-.83c-.71-.29-1.41-.6-2.08-.94a7.83 7.83 0 0 1-1.79-1.22 5.5 5.5 0 0 1-1.28-1.75 5.67 5.67 0 0 1-.49-2.47 6.18 6.18 0 0 1 .44-2.26 5.62 5.62 0 0 1 1.36-2 6.69 6.69 0 0 1 2.35-1.41 9.57 9.57 0 0 1 3.39-.54 10 10 0 0 1 1.65.13 9.71 9.71 0 0 1 1.5.36 7.15 7.15 0 0 1 1.16.47 5.22 5.22 0 0 1 .75.45 1.79 1.79 0 0 1 .34.33.81.81 0 0 1 .12.29 1.48 1.48 0 0 1 .06.35 3.53 3.53 0 0 1 0 .5 2.75 2.75 0 0 1 0 .52 1.53 1.53 0 0 1-.11.41.62.62 0 0 1-.18.25.41.41 0 0 1-.26.09 1.24 1.24 0 0 1-.59-.27 9.34 9.34 0 0 0-1-.59 10.19 10.19 0 0 0-1.51-.58 7 7 0 0 0-2-.27 6.86 6.86 0 0 0-2 .27 3.9 3.9 0 0 0-1.43.76 3 3 0 0 0-.84 1.14 3.6 3.6 0 0 0-.29 1.44 3.24 3.24 0 0 0 .49 1.81 4.63 4.63 0 0 0 1.3 1.27 9.62 9.62 0 0 0 1.84 1c.68.28 1.38.56 2.09.83s1.41.58 2.1.92a8 8 0 0 1 1.83 1.21 5.42 5.42 0 0 1 1.3 1.69 5.29 5.29 0 0 1 .4 2.34z" transform="translate(-3.69 -2.75)"/><path fill="#55b332" d="M34.22 38.22V0L.89 19.25"/><path fill="#f39800" d="M0 22.94v38.18l33.34-19.25L0 22.94z"/><path fill="#e83828" d="M34.22 83.74V45.53L.89 64.78l33.33 18.96z"/><path fill="#00a0e9" d="M71.06 19.25L37.72 0v38.22l33.34-18.97z"/></svg>